PathFileType	4	(X/Y/Z)	./resultDataOpenSim/trcMotMarkerGrf/sub06/qtm-01-08.trc
DataRate	CameraRate	NumFrames	NumMarkers	Units	OrigDataRate	OrigDataStartFrame	OrigNumFrames
250.000000	250.000000	11	24	m	250.000000	1	473
Frame#	Time	L.Toe.Tip			R.Toe.Tip			L.Ankle.Lat			R.Ankle.Lat			L.Ankle.Med			R.Ankle.Med			L.Heel			R.Heel			L.Knee.Lat			R.Knee.Lat			L.Knee.Med			R.Knee.Med			L.Thigh.Upper			R.Thigh.Upper			L.ASIS			R.ASIS			V.Sacral			L.Acromium			R.Acromium			C7			L.Elbow			R.Elbow			L.Wrist.Lat			R.Wrist.Lat
		X1	Y1	Z1	X2	Y2	Z2	X3	Y3	Z3	X4	Y4	Z4	X5	Y5	Z5	X6	Y6	Z6	X7	Y7	Z7	X8	Y8	Z8	X9	Y9	Z9	X10	Y10	Z10	X11	Y11	Z11	X12	Y12	Z12	X13	Y13	Z13	X14	Y14	Z14	X15	Y15	Z15	X16	Y16	Z16	X17	Y17	Z17	X18	Y18	Z18	X19	Y19	Z19	X20	Y20	Z20	X21	Y21	Z21	X22	Y22	Z22	X23	Y23	Z23	X24	Y24	Z24

1	0	-1.501424	0.0318648	-0.064046522	-1.0190296	0.070047979	0.1299545	-1.6215389	0.07610407	-0.078815205	-1.1513838	0.071821164	0.13033418	-1.6113046	0.089060247	0.0048524097	-1.1263979	0.10009595	0.049481187	NaN	NaN	NaN	-1.1888847	0.040635643	0.055750174	-1.469601	0.4171104	-0.096157535	-1.1774422	0.46303587	0.1542941	-1.4858361	0.42048448	0.022948226	-1.1926729	0.44458149	0.027299698	-1.3742405	0.79447924	-0.1643868	-1.3677738	0.78979516	0.18670739	-1.2929585	0.83190776	-0.11891999	-1.2809994	0.83900208	0.12438931	-1.4667739	0.92194232	0.016482388	-1.2976497	1.3261601	-0.17280289	-1.3209501	1.3058717	0.18744173	-1.3830004	1.355903	0.0040201697	-1.3230988	1.0060434	-0.25314521	-1.4499845	1.0153411	0.23381802	-1.1189576	0.86285846	-0.21843141	-1.3483497	0.79811771	0.27510447
2	0.004	-1.5008151	0.03189068	-0.064905119	-1.0005792	0.072704388	0.13021603	-1.6211782	0.076727316	-0.078978898	-1.1324641	0.071869671	0.13151373	-1.6111753	0.089614276	0.0047537149	-1.1089518	0.10052092	0.050233146	NaN	NaN	NaN	-1.1704109	0.039877656	0.05693398	-1.4672089	0.41673486	-0.096461978	-1.1703702	0.4615806	0.15372022	-1.4831193	0.42032964	0.022806874	-1.1852848	0.44276291	0.026703367	-1.3690365	0.79315324	-0.16403512	-1.3617694	0.78797856	0.1866541	-1.2872285	0.83034753	-0.11907807	-1.2739849	0.83723213	0.12447612	-1.4604031	0.9203835	0.017224722	-1.291482	1.3244805	-0.1726432	-1.3149384	1.3039392	0.18776453	-1.3768463	1.3544696	0.0041878351	-1.3153665	1.0042015	-0.25316021	-1.4445405	1.0136056	0.23374972	-1.1103629	0.86266385	-0.21729199	-1.3441578	0.79597566	0.27521252
3	0.008	-1.500506	0.031883266	-0.065368133	-0.98216703	0.075667137	0.13033399	-1.6208232	0.077360915	-0.079160905	-1.1137119	0.072100106	0.1327009	-1.610966	0.090217246	0.0046386365	-1.0917501	0.10105387	0.050997669	NaN	NaN	NaN	-1.1520724	0.039204993	0.058146694	-1.4647465	0.41632761	-0.096745541	-1.1632641	0.46010256	0.15315464	-1.4804191	0.4201144	0.02266577	-1.1779321	0.44089451	0.026084452	-1.3638738	0.79186427	-0.16375779	-1.3555378	0.78612706	0.1866688	-1.281489	0.8287673	-0.11924152	-1.2670065	0.83545871	0.12453922	-1.4540632	0.91879502	0.017725951	-1.2852949	1.3227898	-0.17247334	-1.3089461	1.302021	0.18810997	-1.3706746	1.3530009	0.0043817778	-1.3076079	1.0023478	-0.25314739	-1.4390668	1.0118638	0.23370791	-1.1018009	0.86244298	-0.21614592	-1.3399288	0.79383403	0.27535577
4	0.012	-1.5005508	0.031839795	-0.065374605	-0.96395937	0.079058371	0.13016409	-1.6204692	0.078023591	-0.079385073	-1.095318	0.072578858	0.13386504	-1.6106253	0.090883395	0.0044713387	-1.0749648	0.10175786	0.05176526	NaN	NaN	NaN	-1.1339373	0.038621651	0.059389512	-1.4621677	0.41587524	-0.097020655	-1.1561232	0.45858499	0.15260542	-1.4776734	0.41980618	0.022527846	-1.1706207	0.43896716	0.025428115	-1.3587625	0.79057398	-0.16358457	-1.3487721	0.7842577	0.18684257	-1.2757394	0.8271619	-0.11942324	-1.26004	0.83365853	0.12456971	-1.4477491	0.91717995	0.017896418	-1.2790816	1.3210835	-0.17227897	-1.3029569	1.3001114	0.18848137	-1.3644717	1.3514844	0.0046157903	-1.2998117	1.000483	-0.25312329	-1.4335595	1.010116	0.23371389	-1.0932759	0.86216774	-0.21498346	-1.3356357	0.79168865	0.27553919
5	0.016	-1.5007544	0.031783561	-0.065188003	-0.94626466	0.082810723	0.12965664	-1.6201037	0.078722426	-0.079666662	-1.0775091	0.073247209	0.13493894	-1.6101494	0.091588089	0.0042166962	-1.0587086	0.10263586	0.052502197	NaN	NaN	NaN	-1.1161053	0.038069738	0.060609014	-1.4594561	0.41538245	-0.097304027	-1.1490176	0.45701693	0.15208388	-1.4747811	0.41939943	0.022395856	-1.1633489	0.43700569	0.024733932	-1.3536801	0.78919514	-0.16342099	-1.3412863	0.78242672	0.18722702	-1.2700153	0.82553039	-0.11965264	-1.2530624	0.83181073	0.12457715	-1.4414161	0.91555864	0.017923548	-1.2728587	1.3193626	-0.17205121	-1.2969592	1.2982078	0.18886544	-1.3582451	1.3499279	0.0048771992	-1.291999	0.99861151	-0.25311482	-1.4280703	1.0083829	0.23378705	-1.0847886	0.86181874	-0.21380448	-1.3312727	0.78954379	0.27574769
6	0.02	-1.5009144	0.031734728	-0.06506235	-0.92933485	0.086825659	0.1290006	-1.6197159	0.079446161	-0.079996846	-1.0604631	0.073994637	0.13585128	-1.6095898	0.09230404	0.0038832061	-1.0430249	0.10365853	0.05316382	NaN	NaN	NaN	-1.098703	0.037503939	0.061723372	-1.4566042	0.4148573	-0.09758421	-1.1420173	0.45539508	0.15160308	-1.4717063	0.41889038	0.022269609	-1.1561012	0.43503957	0.024012622	-1.3486093	0.78768264	-0.16305956	-1.3333719	0.78062746	0.18770783	-1.2643376	0.82387014	-0.11995492	-1.2460662	0.82992319	0.12458148	-1.4349905	0.91393211	0.018153483	-1.2666397	1.3176236	-0.17179327	-1.2909468	1.296315	0.18925232	-1.3520037	1.3483416	0.0051428252	-1.2841915	0.99672978	-0.25312032	-1.4226475	1.0066834	0.23393514	-1.0763418	0.86139327	-0.21261797	-1.3268448	0.78740536	0.27597298
7	0.024	-1.5009771	0.031697933	-0.065051972	-0.91327371	0.091042299	0.12853846	-1.6193047	0.080184143	-0.08034883	-1.0442356	0.074756171	0.13656489	-1.6092046	0.092993	0.0035872924	-1.0279222	0.1047895	0.053709976	NaN	NaN	NaN	-1.0818222	0.036943498	0.062675382	-1.4536041	0.41430003	-0.097843203	-1.1350915	0.45375087	0.15118171	-1.4684703	0.41827019	0.022144533	-1.1488555	0.43309675	0.023282327	-1.3435744	0.78610249	-0.16235603	-1.3256935	0.77876203	0.18805979	-1.2586501	0.82219154	-0.12030497	-1.2390428	0.8280259	0.12459796	-1.4284277	0.91229266	0.018777349	-1.2604279	1.3158631	-0.17151069	-1.2849075	1.2944336	0.18964512	-1.345749	1.3467361	0.0054148663	-1.2763978	0.9948359	-0.25311762	-1.417236	1.0049962	0.23412565	-1.0679486	0.86089875	-0.21142846	-1.3223767	0.78527103	0.27621465
8	0.028	-1.5009789	0.031669835	-0.065106291	-0.89806072	0.095398999	0.1284402	-1.6188659	0.08094022	-0.080696028	-1.0287582	0.075550344	0.13708411	-1.6096151	0.09354196	0.0035751687	-1.0134004	0.10599075	0.054116698	NaN	NaN	NaN	-1.0655054	0.036461777	0.063449102	-1.4504485	0.41370632	-0.098082086	-1.1281195	0.4521514	0.15083704	-1.4650806	0.41754221	0.022012857	-1.1415964	0.43120561	0.022562019	-1.3385777	0.78457269	-0.16140666	-1.3186388	0.77675193	0.18817928	-1.2528519	0.82051163	-0.12062201	-1.231986	0.82613679	0.12462388	-1.4217308	0.9106529	0.019743685	-1.2542209	1.3140865	-0.17120506	-1.2788385	1.292566	0.19005216	-1.3394767	1.3451241	0.0057233627	-1.26861	0.99293096	-0.25306596	-1.4116815	1.0032665	0.23429355	-1.0596243	0.86033859	-0.21023436	-1.3179039	0.78313561	0.27646981
9	0.032	-1.5009597	0.031644986	-0.06517792	-0.88360611	0.099795749	0.12858559	-1.6183745	0.081725987	-0.081018488	-1.0139214	0.076433128	0.13742106	-1.6113408	0.093828408	0.0040348868	-0.99945439	0.10722401	0.054376418	NaN	NaN	NaN	-1.0497857	0.036127432	0.06403888	-1.4471432	0.41308292	-0.098305796	-1.1210144	0.45065688	0.15056072	-1.4615334	0.41672857	0.021867702	-1.1343168	0.42939418	0.021869029	-1.3335441	0.78313187	-0.16047814	-1.3120428	0.77461664	0.18815081	-1.246902	0.81884299	-0.12083448	-1.2249004	0.82424887	0.12463979	-1.4149127	0.90904637	0.020936163	-1.2480121	1.3123061	-0.17088016	-1.272756	1.2907207	0.19047905	-1.3331805	1.34351	0.0060972659	-1.2608066	0.99101394	-0.25290398	-1.4058706	1.0014634	0.23439732	-1.0513734	0.85971238	-0.20903652	-1.3134378	0.78100544	0.27673539
10	0.036	-1.5009389	0.03161909	-0.065245516	-0.86984179	0.10408791	0.12876771	-1.617801	0.082550605	-0.081309312	-0.99962764	0.077446375	0.13756798	-1.6138091	0.093968986	0.0047575374	-0.98606182	0.10845115	0.054490283	NaN	NaN	NaN	-1.0346988	0.035955918	0.064416465	-1.4437108	0.41245026	-0.098509223	-1.1137917	0.44929179	0.15031991	-1.4578289	0.4158585	0.021703977	-1.1270091	0.42768605	0.021223684	-1.3283927	0.78172795	-0.15975219	-1.3055091	0.77243697	0.18811976	-1.2408457	0.81719364	-0.12094889	-1.217794	0.82235488	0.12462726	-1.4079815	0.90750251	0.022276723	-1.2417917	1.3105363	-0.17053958	-1.2666756	1.288905	0.19092954	-1.3268511	1.3418803	0.0065585425	-1.2529749	0.98909101	-0.25259937	-1.3998122	0.99960938	0.23444712	-1.0431825	0.85902749	-0.20783128	-1.3089521	0.77889761	0.27701546
11	0.04	-1.50092	0.03159173	-0.065306402	-0.85677128	0.10811868	0.12886802	-1.6171437	0.083421695	-0.081584809	-0.98582919	0.078576154	0.13750493	-1.6154734	0.094339446	0.0051967507	-0.97318772	0.10963372	0.054458902	NaN	NaN	NaN	-1.0202686	0.035909816	0.064538865	-1.4401687	0.4118237	-0.09869057	-1.1065137	0.44805572	0.15009153	-1.4539668	0.41496112	0.021519249	-1.1196531	0.42609734	0.020642333	-1.3231099	0.78030746	-0.15922537	-1.2986802	0.7703059	0.18820632	-1.2347484	0.81556136	-0.12103689	-1.2106677	0.82047316	0.12458478	-1.400981	0.90601393	0.023662576	-1.2355503	1.3087889	-0.17017792	-1.2605987	1.2871252	0.1914066	-1.3204807	1.3402137	0.0071179111	-1.2451282	0.98718355	-0.25219553	-1.3935887	0.99775572	0.23448053	-1.0350201	0.85829719	-0.20660531	-1.3044013	0.77682413	0.27732248
